<svg width="14" height="9" viewBox="0 0 14 9" fill="none" xmlns="http://www.w3.org/2000/svg">
<path d="M12.8379 1.77539L6.14941 8.61328C5.91211 8.85937 5.64844 8.97363 5.34082 8.97363C5.0332 8.97363 4.75195 8.85059 4.52344 8.61328L0.297854 4.81836C0.104494 4.61621 -0.000974253 4.37891 -0.000974228 4.08887C-0.000974177 3.5 0.456057 3.04297 1.03614 3.04297C1.31739 3.04297 1.58985 3.15723 1.79199 3.35937L5.33203 6.47754L11.3438 0.316406C11.5459 0.114258 11.8096 -1.16023e-07 12.0996 -9.0667e-08C12.6797 -3.99549e-08 13.1367 0.457031 13.1367 1.0459C13.1367 1.32715 13.0313 1.57324 12.8379 1.77539Z" fill="#82848B"/>
</svg>
