<svg width="55" height="55" viewBox="0 0 55 55" fill="none" xmlns="http://www.w3.org/2000/svg">
<path d="M53.2034 27.3555C53.2034 41.7201 41.624 53.3555 27.3517 53.3555C13.0794 53.3555 1.5 41.7201 1.5 27.3555C1.5 12.9909 13.0794 1.35547 27.3517 1.35547C41.624 1.35547 53.2034 12.9909 53.2034 27.3555Z" fill="#1A1A1A" stroke="#E6E6E6" stroke-width="2"/>
<path d="M16.7286 39.1055C16.1302 39.1055 15.6091 38.8863 15.1655 38.448C14.7218 38.0098 14.5 37.495 14.5 36.9039V23.6942C14.5 23.103 14.7218 22.5883 15.1655 22.15C15.6091 21.7117 16.1302 21.4926 16.7286 21.4926H20.4429L22.6714 18.5571H31.5857V20.7587H23.7857L21.5571 23.6942H16.7286V36.9039H36.0429V25.1619H38.2714V36.9039C38.2714 37.495 38.0532 38.0098 37.6168 38.448C37.1804 38.8863 36.6557 39.1055 36.0429 39.1055H16.7286ZM36.0429 22.9603V20.7587H33.8143V18.5571H36.0429V16.3555H38.2714V18.5571H40.5V20.7587H38.2714V22.9603H36.0429ZM26.3857 35.4361C27.8714 35.4361 29.1095 34.9367 30.1 33.9378C31.0905 32.9389 31.5857 31.726 31.5857 30.299C31.5857 28.8924 31.0905 27.6846 30.1 26.6755C29.1095 25.6665 27.8714 25.1619 26.3857 25.1619C24.9 25.1619 23.6619 25.6665 22.6714 26.6755C21.681 27.6846 21.1857 28.8975 21.1857 30.3143C21.1857 31.7311 21.681 32.9389 22.6714 33.9378C23.6619 34.9367 24.9 35.4361 26.3857 35.4361ZM26.3857 33.2345C25.519 33.2345 24.8071 32.9478 24.25 32.3743C23.6929 31.8009 23.4143 31.0989 23.4143 30.2684C23.4143 29.4551 23.6929 28.7676 24.25 28.206C24.8071 27.6443 25.519 27.3635 26.3857 27.3635C27.2524 27.3635 27.9643 27.6443 28.5214 28.206C29.0786 28.7676 29.3571 29.4551 29.3571 30.2684C29.3571 31.0989 29.0786 31.8009 28.5214 32.3743C27.9643 32.9478 27.2524 33.2345 26.3857 33.2345Z" fill="#CCCCCC"/>
</svg>
