<svg width="21" height="21" viewBox="0 0 21 21" fill="none" xmlns="http://www.w3.org/2000/svg">
<path d="M13.5 20.2369V15.2369C13.5 14.4412 13.1839 13.6782 12.6213 13.1155C12.0587 12.5529 11.2956 12.2369 10.5 12.2369C9.70435 12.2369 8.94129 12.5529 8.37868 13.1155C7.81607 13.6782 7.5 14.4412 7.5 15.2369V20.2369H2.5C1.96957 20.2369 1.46086 20.0262 1.08579 19.6511C0.710714 19.276 0.5 18.7673 0.5 18.2369V7.36887C0.499997 7.02349 0.589431 6.68401 0.759593 6.38346C0.929755 6.08292 1.17485 5.83156 1.471 5.65387L9.471 0.853867C9.78183 0.667365 10.1375 0.568848 10.5 0.568848C10.8625 0.568848 11.2182 0.667365 11.529 0.853867L19.529 5.65387C19.8252 5.83156 20.0702 6.08292 20.2404 6.38346C20.4106 6.68401 20.5 7.02349 20.5 7.36887V18.2369C20.5 18.7673 20.2893 19.276 19.9142 19.6511C19.5391 20.0262 19.0304 20.2369 18.5 20.2369H13.5Z" fill="#666666"/>
</svg>
