<svg width="25" height="25" viewBox="0 0 25 25" fill="none" xmlns="http://www.w3.org/2000/svg">
<path d="M22.2893 1.652L22.8793 2.242C23.6923 3.056 23.5693 4.499 22.6023 5.465L10.4353 17.632L6.4933 19.074C5.9983 19.256 5.5163 19.02 5.4183 18.549C5.38518 18.3781 5.40077 18.2014 5.4633 18.039L6.9333 14.063L19.0663 1.929C20.0333 0.962996 21.4763 0.837996 22.2893 1.652ZM9.9043 2.862C10.0356 2.862 10.1657 2.88786 10.287 2.93812C10.4083 2.98837 10.5185 3.06203 10.6114 3.15489C10.7043 3.24775 10.7779 3.35799 10.8282 3.47931C10.8784 3.60064 10.9043 3.73067 10.9043 3.862C10.9043 3.99332 10.8784 4.12335 10.8282 4.24468C10.7779 4.366 10.7043 4.47624 10.6114 4.5691C10.5185 4.66196 10.4083 4.73562 10.287 4.78588C10.1657 4.83613 10.0356 4.862 9.9043 4.862H5.9043C5.37386 4.862 4.86516 5.07271 4.49008 5.44778C4.11501 5.82285 3.9043 6.33156 3.9043 6.862V18.862C3.9043 19.3924 4.11501 19.9011 4.49008 20.2762C4.86516 20.6513 5.37386 20.862 5.9043 20.862H17.9043C18.4347 20.862 18.9434 20.6513 19.3185 20.2762C19.6936 19.9011 19.9043 19.3924 19.9043 18.862V14.862C19.9043 14.5968 20.0097 14.3424 20.1972 14.1549C20.3847 13.9674 20.6391 13.862 20.9043 13.862C21.1695 13.862 21.4239 13.9674 21.6114 14.1549C21.7989 14.3424 21.9043 14.5968 21.9043 14.862V18.862C21.9043 19.9229 21.4829 20.9403 20.7327 21.6904C19.9826 22.4406 18.9652 22.862 17.9043 22.862H5.9043C4.84343 22.862 3.82602 22.4406 3.07587 21.6904C2.32572 20.9403 1.9043 19.9229 1.9043 18.862V6.862C1.9043 5.80113 2.32572 4.78371 3.07587 4.03357C3.82602 3.28342 4.84343 2.862 5.9043 2.862H9.9043Z" fill="#666666"/>
</svg>
