<svg width="19" height="19" viewBox="0 0 19 19" fill="none" xmlns="http://www.w3.org/2000/svg">
<path d="M2 18.1719C2 18.1719 0.5 18.1719 0.5 16.6719C0.5 15.1719 2 10.6719 9.5 10.6719C17 10.6719 18.5 15.1719 18.5 16.6719C18.5 18.1719 17 18.1719 17 18.1719H2ZM9.5 9.17188C10.6935 9.17188 11.8381 8.69777 12.682 7.85386C13.5259 7.00994 14 5.86535 14 4.67188C14 3.4784 13.5259 2.33381 12.682 1.48989C11.8381 0.645981 10.6935 0.171875 9.5 0.171875C8.30653 0.171875 7.16193 0.645981 6.31802 1.48989C5.47411 2.33381 5 3.4784 5 4.67188C5 5.86535 5.47411 7.00994 6.31802 7.85386C7.16193 8.69777 8.30653 9.17188 9.5 9.17188Z" fill="#666666"/>
</svg>
